<svg width="42" height="42" viewBox="0 0 42 42" fill="none" xmlns="http://www.w3.org/2000/svg">
<path d="M18.9167 15.0833V0.166656C8.50001 1.20832 0.166672 10.1458 0.166672 21C0.166672 31.8542 8.50001 40.7917 18.9167 41.8333V26.9167C16.8333 26.0625 14.75 23.75 14.75 21C14.75 18.25 16.8333 15.9375 18.9167 15.0833ZM26.9583 18.9167H41.8333C40.8333 9.02082 33.5 1.14582 23.0833 0.166656V15.0833C25.1667 15.7083 26.25 17.125 26.9583 18.9167ZM23.0833 26.9167V41.8333C33.5 40.8542 40.8333 32.9792 41.8333 23.0833H26.9583C26.25 24.875 25.1667 26.2917 23.0833 26.9167Z" fill="white"/>
</svg>
